Coordinates
version=1
nRows=28
nColumns=33
inDegrees=yes

Units are S.I. units (second, meters, Newtons, ...)
Angles are in degrees.

endheader
time	ground_thorax_rot_x	ground_thorax_rot_y	ground_thorax_rot_z	ground_thorax_tx	ground_thorax_ty	ground_thorax_tz	clav_prot_r	clav_elev_r	scapula_abduction_r	scapula_elevation_r	scapula_upward_rot_r	scapula_winging_r	shoulder_elv_r	plane_of_elev_r	axial_rot_r	elbow_flexion_r	pro_sup_r	wrist_flex_r	wrist_dev_r	clav_prot_l	clav_elev_l	scapula_abduction_l	scapula_elevation_l	scapula_upward_rot_l	scapula_winging_l	shoulder_elv_l	plane_of_elev_l	axial_rot_l	elbow_flexion_l	pro_sup_l	wrist_flex_l	wrist_dev_l	
8.5900	36.247226	19.719266	21.631441	-233.660453	829.150873	9.240362	11.592158	37.669013	36.886924	45.000000	-38.068102	2069.428779	-2271.379358	146.389276	-126.607023	2181.699381	109.036193	11.813473	2.087142	9.023561	-45.000000	-36.661406	45.000000	-44.999781	-2778.773444	437.254476	21.923502	-53.112673	738.277703	89.950837	-2.268501	-13.789911	
8.6000	36.240008	19.927087	21.796009	-231.635656	829.097439	9.252761	11.587467	37.723318	36.965671	45.000000	-37.818612	2069.439198	-2271.401177	146.410285	-126.672319	2181.716774	109.118963	11.892360	2.007953	9.019857	-45.000000	-36.713391	45.000000	-44.999608	-2778.910536	437.240606	22.017174	-52.828366	738.390038	90.552391	-2.319632	-13.812035	
8.6100	36.234115	20.140337	21.970536	-229.515516	828.988649	9.265558	11.626851	37.797189	37.060282	45.000000	-37.581885	2069.433058	-2271.439096	146.418759	-126.719061	2181.721102	109.123229	11.982723	1.927563	8.984351	-45.000000	-36.760604	45.000000	-44.999295	-2779.064827	437.227249	22.101152	-52.542922	738.507826	91.129337	-2.371489	-13.840426	
8.6200	36.228006	20.354101	22.155077	-227.297833	828.820366	9.277853	11.683487	37.880503	37.166103	45.000000	-37.353523	2069.412070	-2271.493190	146.408475	-126.755320	2181.711215	109.036578	12.089549	1.846771	8.942731	-45.000000	-36.799409	45.000000	-44.998742	-2779.228220	437.207948	22.185933	-52.260393	738.622487	91.677271	-2.421205	-13.873945	
8.6300	36.215997	20.575728	22.358818	-224.980425	828.588129	9.288638	11.735087	37.964390	37.265194	45.000000	-37.119001	2069.396640	-2271.553276	146.395978	-126.792520	2181.690116	108.843587	12.213425	1.766095	8.904541	-45.000000	-36.836207	45.000000	-44.997735	-2779.395718	437.181249	22.270519	-51.987712	738.731572	92.184440	-2.467615	-13.914817	
8.6400	36.198947	20.800125	22.580118	-222.561344	828.287202	9.296786	11.784111	38.047226	37.363182	45.000000	-36.885241	2069.381397	-2271.624571	146.373825	-126.835126	2181.655530	108.525147	12.357492	1.686786	8.873236	-45.000000	-36.867157	45.000000	-44.995977	-2779.565961	437.145133	22.357530	-51.721619	738.831023	92.636830	-2.509397	-13.964627	
8.6500	36.172814	21.036111	22.824059	-220.038896	827.912775	9.301519	11.827051	38.126895	37.448563	45.000000	-36.649012	2069.378088	-2271.701184	146.353599	-126.892895	2181.605769	108.059619	12.522500	1.610682	8.846021	-45.000000	-36.897548	45.000000	-44.992695	-2779.740882	437.100204	22.442861	-51.468994	738.920212	93.015958	-2.545834	-14.027400	
8.6600	36.135887	21.287789	23.095916	-217.411779	827.460231	9.302402	11.863975	38.201727	37.525815	45.000000	-36.417493	2069.385145	-2271.783985	146.340744	-126.973686	2181.541023	107.420258	12.709898	1.539760	8.822579	-45.000000	-36.928883	45.000000	-44.987192	-2779.919466	437.046083	22.525053	-51.227783	738.998802	93.299278	-2.575968	-14.106434	
8.6700	36.084465	21.561044	23.403210	-214.678569	826.925401	9.299634	11.900824	38.273867	37.587803	45.000000	-36.189424	2069.411603	-2271.867177	146.344152	-127.081133	2181.460552	106.566939	12.919850	1.476913	8.794221	-45.000000	-36.965293	45.000000	-44.976285	-2780.102506	436.984852	22.595583	-50.997609	739.065350	93.456050	-2.598556	-14.206553	
8.6800	36.023102	21.846960	23.739010	-211.837723	826.304844	9.293830	11.964153	38.350632	37.649916	45.000000	-35.988318	2069.436789	-2271.960129	146.340098	-127.208910	2181.355039	105.448023	13.156346	1.427629	8.750246	-45.000000	-36.999171	45.000000	-44.959675	-2780.293624	436.915813	22.655113	-50.769132	739.117924	93.449114	-2.611090	-14.330162	
8.6900	35.950196	22.141874	24.100552	-208.887217	825.595959	9.286008	12.036419	38.426319	37.701208	45.000000	-35.808448	2069.470430	-2272.060692	146.326348	-127.360087	2181.214266	103.996776	13.423051	1.401647	8.702304	-45.000000	-37.034868	45.000000	-44.921748	-2780.488200	436.833667	22.702803	-50.555377	739.141741	93.220432	-2.605892	-14.484926	
8.7000	35.861562	22.451612	24.500024	-205.825412	824.797144	9.277031	12.114725	38.497168	37.747254	45.000000	-35.659376	2069.509544	-2272.166849	146.309450	-127.538399	2181.033494	102.111190	13.722097	1.409408	8.654179	-45.000000	-37.065572	45.000000	-44.876627	-2780.682185	436.738771	22.743814	-50.344381	739.129099	92.683841	-2.574706	-14.673396	
8.7100	35.758649	22.768028	24.931298	-202.651414	823.907717	9.267396	12.192765	38.561357	37.787045	45.000000	-35.536222	2069.561439	-2272.283234	146.290311	-127.730593	2180.791477	99.600644	14.058130	1.474037	8.608652	-45.000000	-37.091825	45.000000	-44.819742	-2780.875836	436.626599	22.777495	-50.135745	739.054852	91.688946	-2.498956	-14.909431	
8.7200	35.639895	23.096086	25.401288	-199.366230	822.927893	9.256856	12.290664	38.624671	37.827534	45.000000	-35.448322	2069.617776	-2272.415003	146.273014	-127.921120	2180.468263	96.231317	14.433225	1.620689	8.552339	-45.000000	-37.104904	45.000000	-44.777575	-2781.075405	436.501391	22.805667	-49.910459	738.904043	90.055935	-2.359499	-15.199190	
8.7300	35.504387	23.431917	25.905300	-195.972987	821.858560	9.244443	12.386380	38.679678	37.862157	45.000000	-35.381607	2069.696237	-2272.566783	146.277458	-128.076426	2180.002622	91.329699	14.857384	1.921258	8.500181	-45.000000	-37.109020	45.000000	-44.746718	-2781.280031	436.357476	22.827886	-49.672661	738.616153	87.304716	-2.097951	-15.574098	
8.7400	35.350539	23.785921	26.453794	-192.476987	820.701067	9.228371	12.521317	38.740137	37.902054	45.000000	-35.352420	2069.781737	-2272.741640	146.309745	-128.162948	2179.366227	84.510189	15.329330	2.415971	8.419895	-45.000000	-37.093053	45.000000	-44.760205	-2781.498591	436.205053	22.839845	-49.405225	738.179622	83.139314	-1.684164	-16.040079	
8.7500	35.175072	24.154599	27.041702	-188.884843	819.457044	9.206356	12.654622	38.777091	37.928814	45.000000	-35.357180	2069.903008	-2272.956780	146.407303	-128.049601	2178.312340	72.908547	15.883588	3.396957	8.363077	-45.000000	-37.078216	45.000000	-44.798488	-2781.722930	436.022426	22.832663	-49.102518	737.382735	75.618365	-0.886581	-16.713241	
8.7600	34.976962	24.547420	27.675111	-185.203699	818.128391	9.175891	12.761461	38.799377	37.933648	45.000000	-35.391950	2070.037229	-2273.207680	146.543577	-127.735104	2176.951463	57.850777	16.471444	4.757364	8.319063	-45.000000	-37.066073	45.000000	-44.861207	-2781.941817	435.809451	22.805747	-48.853169	736.317140	65.478133	0.213439	-17.514835	
8.7700	34.744957	24.965831	28.363859	-181.440254	816.717366	9.134788	12.767938	38.780118	37.896347	45.000000	-35.438684	2070.213810	-2273.478650	146.731660	-127.253823	2175.389360	40.560310	17.040227	6.402904	8.339627	-45.000000	-37.077333	45.000000	-44.914866	-2782.132692	435.554957	22.756102	-48.728268	735.043196	53.457961	1.564613	-18.381210	
8.7800	34.490899	25.403275	29.094150	-177.600314	815.226838	9.081658	12.738289	38.760189	37.838824	45.000000	-35.503443	2070.382689	-2273.751817	146.900383	-126.746109	2173.994824	25.344066	17.495793	7.924119	8.356290	-45.000000	-37.087444	45.000000	-44.963397	-2782.306527	435.286063	22.686116	-48.789575	733.873437	42.352794	2.860307	-19.117192	
8.7900	34.209282	25.851845	29.866631	-173.688659	813.660677	9.016496	12.660573	38.718777	37.755856	45.000000	-35.585585	2070.570053	-2274.018306	147.060931	-126.258102	2172.808257	12.665901	17.821098	9.275712	8.408476	-45.000000	-37.103193	45.000000	-44.989697	-2782.459835	434.998754	22.594703	-49.021108	732.828780	32.573074	4.079187	-19.704190	
8.8000	33.918075	26.298824	30.657276	-169.709159	812.023963	8.940976	12.619770	38.704400	37.670195	45.000000	-35.687671	2070.727297	-2274.269442	147.147505	-125.902106	2172.082793	5.532049	17.975844	10.151384	8.414241	-45.000000	-37.099470	45.000000	-45.000000	-2782.613806	434.721832	22.482902	-49.438738	732.142079	26.179883	4.972074	-20.017413	
8.8100	33.608831	26.743267	31.476361	-165.665180	810.323111	8.858528	12.618404	38.700130	37.584216	45.000000	-35.811973	2070.886534	-2274.500455	147.202696	-125.688258	2171.731123	2.847274	17.998081	10.636264	8.398952	-45.000000	-37.081976	45.000000	-45.000000	-2782.770764	434.455714	22.345659	-49.972782	731.744648	22.647478	5.598953	-20.113965	
8.8200	33.290060	27.180278	32.311109	-161.559969	808.565769	8.773958	12.695763	38.718378	37.505519	45.000000	-35.971853	2071.028777	-2274.719242	147.211904	-125.591125	2171.672389	3.674820	17.930601	10.797957	8.337823	-45.000000	-37.041736	45.000000	-45.000000	-2782.939585	434.206117	22.186092	-50.585540	731.597851	21.491301	5.985555	-20.043954	
8.8300	32.950209	27.618313	33.177303	-157.396945	806.760581	8.692846	12.797903	38.722211	37.417981	45.000000	-36.168259	2071.193072	-2274.938744	147.239011	-125.497585	2171.606449	4.450378	17.850580	10.970436	8.287761	-45.000000	-36.998724	45.000000	-45.000000	-2783.106824	433.952303	22.000257	-51.229342	731.457295	20.486952	6.369206	-19.963942	
8.8400	32.591371	28.059584	34.073835	-153.180080	804.916913	8.620680	12.907499	38.720653	37.318146	45.000000	-36.397771	2071.363988	-2275.162440	147.269525	-125.384436	2171.530544	5.184051	17.766065	11.149568	8.233795	-45.000000	-36.953353	45.000000	-45.000000	-2783.265838	433.693921	21.791430	-51.939574	731.330332	19.639939	6.725870	-19.874233	
8.8500	32.203691	28.508966	35.015693	-148.913758	803.044445	8.562138	12.983868	38.697706	37.201328	45.000000	-36.655967	2071.562315	-2275.382287	147.328823	-125.261348	2171.447591	5.871573	17.677722	11.336366	8.200250	-45.000000	-36.914033	45.000000	-45.000000	-2783.403818	433.427252	21.560243	-52.724746	731.209722	18.970022	7.056045	-19.777667	
8.8600	31.784056	28.967687	36.006097	-144.603054	801.153180	8.520443	13.026029	38.647853	37.065446	45.000000	-36.955749	2071.784092	-2275.595095	147.405412	-125.126017	2171.353733	6.512012	17.584731	11.528789	8.197310	-45.000000	-36.877310	45.000000	-45.000000	-2783.514836	433.150742	21.314465	-53.585801	731.092159	18.486789	7.360080	-19.676950	
